<svg width="16" height="16" viewBox="0 0 16 16" fill="none" xmlns="http://www.w3.org/2000/svg">
<path fill-rule="evenodd" clip-rule="evenodd" d="M4.48376 0.0937497C3.24024 0.149858 2.16242 0.453902 1.29211 1.32054C0.418754 2.19173 0.118515 3.27371 0.0622678 4.50429C0.0273032 5.27237 -0.177163 11.075 0.415714 12.5967C0.815526 13.6234 1.60299 14.4127 2.639 14.8138C3.12242 15.0018 3.67426 15.1292 4.48376 15.1663C11.2524 15.4727 13.7615 15.3058 14.8196 12.5967C15.0073 12.1145 15.1365 11.5633 15.1723 10.7558C15.4816 3.96975 15.1221 2.49881 13.9424 1.32054C13.0067 0.387179 11.9061 -0.248206 4.48376 0.0937497M4.54609 13.8015C3.80499 13.7682 3.4029 13.6446 3.13459 13.5407C2.45962 13.2784 1.95263 12.7734 1.69192 12.1024C1.24042 10.9461 1.39016 5.45434 1.43044 4.56571C1.46997 3.69527 1.64631 2.8999 2.26047 2.28575C3.02057 1.52753 4.00262 1.15601 10.6892 1.45778C11.5618 1.4972 12.3591 1.67311 12.9748 2.28575C13.7349 3.04397 14.1119 4.03344 13.8049 10.6944C13.7714 11.4336 13.6475 11.8347 13.5434 12.1024C12.8555 13.8652 11.273 14.1101 4.54609 13.8015M10.7629 3.58231C10.7629 4.08424 11.1711 4.49217 11.6751 4.49217C12.179 4.49217 12.5879 4.08424 12.5879 3.58231C12.5879 3.08037 12.179 2.67245 11.6751 2.67245C11.1711 2.67245 10.7629 3.08037 10.7629 3.58231M3.71454 7.62967C3.71454 9.77997 5.46201 11.5231 7.61765 11.5231C9.77329 11.5231 11.5208 9.77997 11.5208 7.62967C11.5208 5.47937 9.77329 3.73699 7.61765 3.73699C5.46201 3.73699 3.71454 5.47937 3.71454 7.62967M5.08424 7.62967C5.08424 6.23456 6.21831 5.10254 7.61765 5.10254C9.01699 5.10254 10.1511 6.23456 10.1511 7.62967C10.1511 9.02555 9.01699 10.1576 7.61765 10.1576C6.21831 10.1576 5.08424 9.02555 5.08424 7.62967" fill="white"/>
</svg>
