<svg width="15" height="12" viewBox="0 0 15 12" fill="none" xmlns="http://www.w3.org/2000/svg">
<path fill-rule="evenodd" clip-rule="evenodd" d="M4.7175 12C10.3777 12 13.4738 7.38274 13.4738 3.3791C13.4738 3.24766 13.4737 3.11696 13.4647 2.987C14.067 2.55873 14.5868 2.02707 15 1.41862C14.439 1.66378 13.8427 1.82475 13.233 1.89564C13.875 1.51683 14.3557 0.921677 14.586 0.219452C13.9815 0.57241 13.3207 0.821254 12.6315 0.954905C11.466 -0.264944 9.51675 -0.324016 8.277 0.823469C7.47825 1.56335 7.1385 2.66653 7.38675 3.71876C4.9125 3.59619 2.607 2.44575 1.044 0.553212C0.22725 1.93773 0.645 3.70843 1.99725 4.59747C1.5075 4.58344 1.02825 4.45348 0.6 4.21866V4.25706C0.60075 5.69917 1.6335 6.94117 3.069 7.22694C2.616 7.34877 2.1405 7.36649 1.68 7.27862C2.08275 8.51324 3.2385 9.35872 4.55475 9.38309C3.465 10.2263 2.11875 10.6842 0.73275 10.6827C0.48825 10.6819 0.24375 10.6679 0 10.6391C1.40775 11.5282 3.045 12 4.7175 11.9978" fill="white"/>
</svg>
