<svg width="378" height="378" viewBox="0 0 378 378" fill="none" xmlns="http://www.w3.org/2000/svg">
<path d="M152.16 224.04C172.44 224.04 186.96 214.08 189.36 191.88H171.12C169.32 203.52 162.84 208.08 152.76 208.08C140.64 208.08 133.92 199.2 133.92 183.36V181.68C133.92 165.96 140.76 156.96 153.12 156.96C162.6 156.96 168.84 161.64 171 171.48H189C185.76 151.68 172.68 141 152.88 141C129.6 141 114 157.56 114 182.64C114 207.48 129.36 224.04 152.16 224.04Z" fill="#0047FD"/>
<path d="M225.348 223.8C245.028 223.8 257.028 213.6 257.028 197.76C257.028 181.44 243.108 177.24 230.268 174.6C219.828 172.44 210.588 171.24 210.588 164.64C210.588 158.76 215.148 155.16 222.708 155.16C232.788 155.16 237.588 159.36 238.908 168.24H256.308C254.628 151.2 242.988 141 222.828 141C204.468 141 191.268 151.68 191.268 166.92C191.268 183 206.148 187.56 219.108 190.44C229.428 192.6 237.708 194.16 237.708 200.04C237.708 206.16 233.028 209.76 224.868 209.76C213.828 209.76 208.788 205.68 206.988 196.44H189.348C191.508 212.52 203.268 223.8 225.348 223.8Z" fill="#0047FD"/>
<path d="M294.404 223.8C314.084 223.8 326.084 213.6 326.084 197.76C326.084 181.44 312.164 177.24 299.324 174.6C288.884 172.44 279.644 171.24 279.644 164.64C279.644 158.76 284.204 155.16 291.764 155.16C301.844 155.16 306.644 159.36 307.964 168.24H325.364C323.684 151.2 312.044 141 291.884 141C273.524 141 260.324 151.68 260.324 166.92C260.324 183 275.204 187.56 288.164 190.44C298.484 192.6 306.764 194.16 306.764 200.04C306.764 206.16 302.084 209.76 293.924 209.76C282.884 209.76 277.844 205.68 276.044 196.44H258.404C260.564 212.52 272.324 223.8 294.404 223.8Z" fill="#0047FD"/>
<path opacity="0.1" d="M61 117H293V130H303V107H51V271H303V235H293V261H61V117Z" fill="#0047FD"/>
<g opacity="0.6">
<path d="M212.956 240.472H205.956V235.46H215.252V232.408H202.4V251H205.956V243.524H212.956V240.472Z" fill="#0047FD"/>
<path d="M220.336 232.156H216.836V251H220.336V232.156Z" fill="#0047FD"/>
<path d="M229.037 248.424C227.021 248.424 225.817 246.968 225.817 244.504V244.392C225.817 241.872 227.049 240.36 229.093 240.36C231.109 240.36 232.341 241.872 232.341 244.392V244.504C232.341 246.968 231.081 248.424 229.037 248.424ZM229.009 251.252C233.013 251.252 235.869 248.396 235.869 244.42C235.869 240.388 233.069 237.532 229.093 237.532C225.089 237.532 222.289 240.388 222.289 244.42C222.289 248.452 225.033 251.252 229.009 251.252Z" fill="#0047FD"/>
<path d="M241.28 237.784H237.808V251H241.28V244.224C241.28 241.928 241.868 240.976 243.968 240.976H245.34V237.644H245.06C242.624 237.644 241.644 238.708 241.28 240.22V237.784Z" fill="#0047FD"/>
<path d="M250.66 237.784H247.16V251H250.66V237.784ZM250.716 232.464H247.104V235.852H250.716V232.464Z" fill="#0047FD"/>
<path d="M260.705 251.28C264.093 251.28 266.613 248.592 266.613 244.308V244.28C266.613 240.08 264.065 237.504 260.733 237.504C258.997 237.504 257.597 238.232 256.701 239.464V237.784H253.257V256.208H256.701V249.32C257.625 250.552 259.025 251.28 260.705 251.28ZM259.781 248.452C257.709 248.452 256.533 246.912 256.533 244.588V244.336C256.533 241.984 257.765 240.332 259.781 240.332C261.713 240.332 262.973 241.62 262.973 244.224V244.42C262.973 247.024 261.657 248.452 259.781 248.452Z" fill="#0047FD"/>
<path d="M272.409 251.336C274.369 251.336 275.881 250.58 276.721 249.208V251H280.053V242.684C280.053 239.1 277.869 237.532 274.285 237.532C270.561 237.532 268.209 239.52 268.097 242.516H271.541V242.32C271.625 241.144 272.465 240.248 274.257 240.248C276.049 240.248 276.749 240.976 276.749 241.76V241.9C276.665 242.628 275.433 242.74 272.997 243.216C270.029 243.86 267.817 244.532 267.817 247.5C267.817 249.796 269.581 251.336 272.409 251.336ZM273.221 248.844C272.017 248.844 271.317 248.228 271.317 247.332C271.317 246.156 272.325 245.708 273.669 245.372C274.761 245.092 275.993 244.868 276.749 244.42V245.54C276.665 248.004 274.873 248.844 273.221 248.844Z" fill="#0047FD"/>
</g>
</svg>
