<svg width="103" height="62" viewBox="0 0 103 62" fill="none" xmlns="http://www.w3.org/2000/svg">
<path d="M37.8774 44.2468C45.4709 44.2468 50.9076 40.4815 51.8063 32.0888H44.9767C44.3027 36.4893 41.8764 38.2132 38.1021 38.2132C33.564 38.2132 31.0478 34.8561 31.0478 28.8678V28.2327C31.0478 22.2898 33.6089 18.8873 38.2369 18.8873C41.7865 18.8873 44.1229 20.6566 44.9317 24.3766H51.6715C50.4583 16.8912 45.5608 12.8537 38.147 12.8537C29.4303 12.8537 23.5892 19.1142 23.5892 28.5956C23.5892 37.9863 29.3404 44.2468 37.8774 44.2468Z" fill="white"/>
<path d="M65.2812 44.1561C72.65 44.1561 77.1432 40.3 77.1432 34.3117C77.1432 28.142 71.9311 26.5542 67.1234 25.5561C63.2144 24.7395 59.7546 24.2859 59.7546 21.7907C59.7546 19.5678 61.462 18.2068 64.2927 18.2068C68.067 18.2068 69.8643 19.7946 70.3585 23.1517H76.8736C76.2446 16.7098 71.8862 12.8537 64.3377 12.8537C57.4631 12.8537 52.5206 16.8912 52.5206 22.6527C52.5206 28.7317 58.0922 30.4556 62.9448 31.5444C66.8089 32.361 69.9092 32.9507 69.9092 35.1737C69.9092 37.4873 68.1569 38.8483 65.1015 38.8483C60.9678 38.8483 59.0806 37.3059 58.4067 33.8127H51.8017C52.6105 39.8917 57.0138 44.1561 65.2812 44.1561Z" fill="white"/>
<path d="M91.138 44.1561C98.5068 44.1561 103 40.3 103 34.3117C103 28.142 97.7879 26.5542 92.9802 25.5561C89.0712 24.7395 85.6114 24.2859 85.6114 21.7907C85.6114 19.5678 87.3188 18.2068 90.1495 18.2068C93.9238 18.2068 95.7211 19.7946 96.2153 23.1517H102.73C102.101 16.7098 97.743 12.8537 90.1945 12.8537C83.3199 12.8537 78.3774 16.8912 78.3774 22.6527C78.3774 28.7317 83.9489 30.4556 88.8016 31.5444C92.6657 32.361 95.766 32.9507 95.766 35.1737C95.766 37.4873 94.0137 38.8483 90.9583 38.8483C86.8246 38.8483 84.9374 37.3059 84.2635 33.8127H77.6585C78.4673 39.8917 82.8706 44.1561 91.138 44.1561Z" fill="white"/>
<path opacity="0.3" d="M3.74431 3.78049H90.6123V8.69512H94.3566V0H0V62H94.3566V48.3902H90.6123V58.2195H3.74431V3.78049Z" fill="white"/>
<g opacity="0.6">
<path d="M60.6413 50.4589H58.0203V48.5641H61.501V47.4103H56.6888V54.439H58.0203V51.6127H60.6413V50.4589Z" fill="white"/>
<path d="M63.4044 47.3151H62.0939V54.439H63.4044V47.3151Z" fill="white"/>
<path d="M66.6624 53.4652C65.9075 53.4652 65.4567 52.9147 65.4567 51.9832V51.9409C65.4567 50.9882 65.918 50.4166 66.6833 50.4166C67.4382 50.4166 67.8995 50.9882 67.8995 51.9409V51.9832C67.8995 52.9147 67.4277 53.4652 66.6624 53.4652ZM66.6519 54.5343C68.1511 54.5343 69.2205 53.4546 69.2205 51.9514C69.2205 50.4272 68.1721 49.3475 66.6833 49.3475C65.1841 49.3475 64.1357 50.4272 64.1357 51.9514C64.1357 53.4757 65.1631 54.5343 66.6519 54.5343Z" fill="white"/>
<path d="M71.2465 49.4427H69.9465V54.439H71.2465V51.8774C71.2465 51.0094 71.4667 50.6494 72.253 50.6494H72.7667V49.3898H72.6619C71.7498 49.3898 71.3828 49.792 71.2465 50.3636V49.4427Z" fill="white"/>
<path d="M74.7588 49.4427H73.4483V54.439H74.7588V49.4427ZM74.7797 47.4315H73.4273V48.7123H74.7797V47.4315Z" fill="white"/>
<path d="M78.5199 54.5449C79.7885 54.5449 80.7321 53.5287 80.7321 51.9091V51.8985C80.7321 50.3107 79.778 49.3369 78.5304 49.3369C77.8804 49.3369 77.3562 49.6121 77.0207 50.0778V49.4427H75.7312V56.4079H77.0207V53.8039C77.3667 54.2696 77.8909 54.5449 78.5199 54.5449ZM78.174 53.4757C77.3981 53.4757 76.9578 52.8935 76.9578 52.015V51.9197C76.9578 51.0305 77.4191 50.406 78.174 50.406C78.8974 50.406 79.3691 50.8929 79.3691 51.8774V51.9514C79.3691 52.9359 78.8764 53.4757 78.174 53.4757Z" fill="white"/>
<path d="M82.9024 54.566C83.6363 54.566 84.2025 54.2802 84.517 53.7615V54.439H85.7646V51.2952C85.7646 49.9402 84.9468 49.3475 83.6049 49.3475C82.2105 49.3475 81.3298 50.099 81.2879 51.2316H82.5774V51.1575C82.6089 50.713 82.9234 50.3742 83.5944 50.3742C84.2654 50.3742 84.5275 50.6495 84.5275 50.9458V50.9988C84.496 51.274 84.0347 51.3163 83.1226 51.4963C82.0113 51.7397 81.183 51.9938 81.183 53.1158C81.183 53.9838 81.8435 54.566 82.9024 54.566ZM83.2065 53.6239C82.7557 53.6239 82.4936 53.3911 82.4936 53.0523C82.4936 52.6077 82.871 52.4384 83.3742 52.3114C83.7831 52.2055 84.2444 52.1208 84.5275 51.9514V52.3749C84.496 53.3064 83.825 53.6239 83.2065 53.6239Z" fill="white"/>
</g>
</svg>
